<?xml version="1.0" encoding="UTF-8"?>
<svg id="Layer_1" xmlns="http://www.w3.org/2000/svg" xmlns:xlink="http://www.w3.org/1999/xlink" viewBox="0 0 545.27 276.08">
  <defs>
    <style>
      .cls-1 {
        fill: none;
      }

      .cls-2 {
        font-family: MyriadPro-Regular, 'Myriad Pro';
        font-size: 1.2px;
      }

      .cls-3 {
        fill: url(#linear-gradient-7);
      }

      .cls-4 {
        fill: url(#linear-gradient-6);
      }

      .cls-5 {
        fill: url(#linear-gradient-9);
      }

      .cls-6 {
        fill: url(#linear-gradient-4);
      }

      .cls-7 {
        fill: url(#linear-gradient-3);
      }

      .cls-8 {
        fill: #00bdff;
      }

      .cls-9 {
        fill: #17c3ff;
      }

      .cls-10 {
        font-family: HelveticaNeue-Thin, 'Helvetica Neue';
        font-weight: 200;
      }

      .cls-10, .cls-11 {
        fill: #fff;
        font-size: 70px;
      }

      .cls-12 {
        fill: url(#linear-gradient-5);
      }

      .cls-12, .cls-13, .cls-14, .cls-15, .cls-16, .cls-17, .cls-18, .cls-19 {
        opacity: .3;
      }

      .cls-13 {
        fill: url(#linear-gradient-8);
      }

      .cls-14 {
        fill: url(#linear-gradient-2);
      }

      .cls-20 {
        fill: url(#linear-gradient);
        stroke: #231f20;
        stroke-miterlimit: 10;
        stroke-width: .1px;
      }

      .cls-15 {
        fill: url(#linear-gradient-11);
      }

      .cls-16 {
        fill: url(#linear-gradient-23);
      }

      .cls-17 {
        fill: url(#linear-gradient-20);
      }

      .cls-18 {
        fill: url(#linear-gradient-14);
      }

      .cls-19 {
        fill: url(#linear-gradient-17);
      }

      .cls-21 {
        fill: url(#linear-gradient-10);
      }

      .cls-22 {
        fill: url(#linear-gradient-12);
      }

      .cls-23 {
        fill: url(#linear-gradient-13);
      }

      .cls-24 {
        fill: url(#linear-gradient-19);
      }

      .cls-25 {
        fill: url(#linear-gradient-21);
      }

      .cls-26 {
        fill: url(#linear-gradient-22);
      }

      .cls-27 {
        fill: url(#linear-gradient-25);
      }

      .cls-28 {
        fill: url(#linear-gradient-15);
      }

      .cls-29 {
        fill: url(#linear-gradient-16);
      }

      .cls-30 {
        fill: url(#linear-gradient-18);
      }

      .cls-31 {
        fill: url(#linear-gradient-24);
      }

      .cls-32 {
        opacity: .15;
      }

      .cls-11 {
        font-family: HelveticaNeue-CondensedBlack, 'Helvetica Neue';
        font-weight: 800;
      }

      .cls-33 {
        clip-path: url(#clippath);
      }
    </style>
    <linearGradient id="linear-gradient" x1="4.83" y1="22.81" x2="231.22" y2="212.77" gradientUnits="userSpaceOnUse">
      <stop offset="0" stop-color="#0001d4"/>
      <stop offset="1" stop-color="#00032a"/>
    </linearGradient>
    <clipPath id="clippath">
      <rect class="cls-1" x="3.32" y="7.3" width="229.41" height="219.12" rx="25.68" ry="25.68"/>
    </clipPath>
    <linearGradient id="linear-gradient-2" x1="-59.64" y1="365.8" x2="-53.71" y2="365.8" gradientTransform="translate(135.49 420.92) rotate(-180)" gradientUnits="userSpaceOnUse">
      <stop offset=".39" stop-color="#14f5ff"/>
      <stop offset="1" stop-color="#00deff"/>
    </linearGradient>
    <linearGradient id="linear-gradient-3" x1="-58.06" x2="-56.2" xlink:href="#linear-gradient-2"/>
    <linearGradient id="linear-gradient-4" x1="72.77" y1="-90.83" x2="50.3" y2="-68.36" gradientTransform="translate(109.28 134.72)" gradientUnits="userSpaceOnUse">
      <stop offset="0" stop-color="#2afff6"/>
      <stop offset=".02" stop-color="#2afdf6" stop-opacity=".96"/>
      <stop offset=".18" stop-color="#30f6f8" stop-opacity=".71"/>
      <stop offset=".34" stop-color="#34effa" stop-opacity=".5"/>
      <stop offset=".49" stop-color="#38eafc" stop-opacity=".32"/>
      <stop offset=".64" stop-color="#3be6fd" stop-opacity=".18"/>
      <stop offset=".78" stop-color="#3de3fe" stop-opacity=".08"/>
      <stop offset=".9" stop-color="#3ee1fe" stop-opacity=".02"/>
      <stop offset="1" stop-color="#3fe1ff" stop-opacity="0"/>
    </linearGradient>
    <linearGradient id="linear-gradient-5" x1="-27.64" y1="133.59" x2="-23.28" y2="133.59" gradientTransform="translate(159.67 81.83) rotate(90)" xlink:href="#linear-gradient-2"/>
    <linearGradient id="linear-gradient-6" x1="-26.15" y1="133.59" x2="-24.77" y2="133.59" gradientTransform="translate(159.67 81.83) rotate(90)" xlink:href="#linear-gradient-2"/>
    <linearGradient id="linear-gradient-7" x1="301.31" y1="-62.58" x2="286.19" y2="-47.45" gradientTransform="translate(-267.67 126.1)" xlink:href="#linear-gradient-4"/>
    <linearGradient id="linear-gradient-8" x1="46.51" y1="133.59" x2="52.44" y2="133.59" gradientTransform="translate(159.67 81.83) rotate(90)" xlink:href="#linear-gradient-2"/>
    <linearGradient id="linear-gradient-9" x1="48.54" y1="133.59" x2="50.4" y2="133.59" gradientTransform="translate(159.67 81.83) rotate(90)" xlink:href="#linear-gradient-2"/>
    <linearGradient id="linear-gradient-10" x1="306.05" y1="17.09" x2="281.45" y2="41.7" gradientTransform="translate(-267.67 126.1)" xlink:href="#linear-gradient-4"/>
    <linearGradient id="linear-gradient-11" x1="-13.22" y1="80.5" x2="-7.29" y2="80.5" gradientTransform="translate(77.68 110.25)" xlink:href="#linear-gradient-2"/>
    <linearGradient id="linear-gradient-12" x1="-11.19" y1="80.5" x2="-9.32" y2="80.5" gradientTransform="translate(77.68 110.25)" xlink:href="#linear-gradient-2"/>
    <linearGradient id="linear-gradient-13" x1="357.04" y1="-44.73" x2="336.63" y2="-24.31" gradientTransform="translate(-259.42 225.27)" xlink:href="#linear-gradient-4"/>
    <linearGradient id="linear-gradient-14" x1="38.75" y1="319.45" x2="44.68" y2="319.45" gradientTransform="translate(-107.02 231.53) rotate(-90)" xlink:href="#linear-gradient-2"/>
    <linearGradient id="linear-gradient-15" x1="40.78" y1="319.45" x2="42.64" y2="319.45" gradientTransform="translate(-107.02 231.53) rotate(-90)" xlink:href="#linear-gradient-2"/>
    <linearGradient id="linear-gradient-16" x1="118.1" y1="7.24" x2="97.68" y2="27.65" gradientTransform="translate(104.54 152.37)" xlink:href="#linear-gradient-4"/>
    <linearGradient id="linear-gradient-17" x1="116.16" y1="320.38" x2="122.1" y2="320.38" gradientTransform="translate(-107.02 231.53) rotate(-90)" xlink:href="#linear-gradient-2"/>
    <linearGradient id="linear-gradient-18" x1="118.2" y1="320.38" x2="120.06" y2="320.38" gradientTransform="translate(-107.02 231.53) rotate(-90)" xlink:href="#linear-gradient-2"/>
    <linearGradient id="linear-gradient-19" x1="117.17" y1="84.66" x2="96.75" y2="105.07" gradientTransform="translate(106.4 -2.46)" xlink:href="#linear-gradient-4"/>
    <linearGradient id="linear-gradient-20" x1="36.2" y1="366.73" x2="42.13" y2="366.73" xlink:href="#linear-gradient-2"/>
    <linearGradient id="linear-gradient-21" x1="37.78" y1="366.73" x2="39.65" y2="366.73" xlink:href="#linear-gradient-2"/>
    <linearGradient id="linear-gradient-22" x1="71.84" y1="5.01" x2="49.37" y2="27.48" gradientTransform="translate(14.37 37.95)" xlink:href="#linear-gradient-4"/>
    <linearGradient id="linear-gradient-23" x1="67.44" y1="80.09" x2="73.37" y2="80.09" gradientTransform="translate(77.68 110.25)" xlink:href="#linear-gradient-2"/>
    <linearGradient id="linear-gradient-24" x1="69.47" y1="80.09" x2="71.34" y2="80.09" gradientTransform="translate(77.68 110.25)" xlink:href="#linear-gradient-2"/>
    <linearGradient id="linear-gradient-25" x1="353.75" y1="32.52" x2="340.46" y2="45.81" gradientTransform="translate(-186 151.32)" xlink:href="#linear-gradient-4"/>
  </defs>
  <rect class="cls-20" x="3.32" y="8.23" width="229.41" height="219.12" rx="25.68" ry="25.68"/>
  <g class="cls-33">
    <g class="cls-32">
      <rect class="cls-9" x="0" y="15.34" width="232.73" height="1.09"/>
      <rect class="cls-9" y="34.72" width="232.73" height="1.09"/>
      <rect class="cls-9" x="0" y="54.1" width="232.73" height="1.09"/>
      <rect class="cls-9" x="0" y="73.48" width="232.73" height="1.09"/>
      <rect class="cls-9" x="0" y="92.87" width="232.73" height="1.09"/>
      <rect class="cls-9" x="0" y="112.25" width="232.73" height="1.09"/>
      <rect class="cls-9" x="0" y="131.63" width="232.73" height="1.09"/>
      <rect class="cls-9" x="0" y="151.01" width="232.73" height="1.09"/>
      <rect class="cls-9" x="0" y="170.39" width="232.73" height="1.09"/>
      <rect class="cls-9" x="0" y="189.77" width="232.73" height="1.09"/>
      <rect class="cls-9" x="0" y="209.15" width="232.73" height="1.09"/>
      <rect class="cls-9" x="0" y="228.53" width="232.73" height="1.09"/>
    </g>
    <g class="cls-32">
      <rect class="cls-8" x="4.83" y="8.39" width="1.17" height="219.12"/>
      <rect class="cls-8" x="25.58" y="8.39" width="1.17" height="219.12"/>
      <rect class="cls-8" x="46.33" y="8.39" width="1.17" height="219.12"/>
      <rect class="cls-8" x="67.08" y="8.39" width="1.17" height="219.12"/>
      <rect class="cls-8" x="87.83" y="8.39" width="1.17" height="219.12"/>
      <rect class="cls-8" x="108.58" y="8.39" width="1.17" height="219.12"/>
      <rect class="cls-8" x="129.33" y="8.39" width="1.17" height="219.12"/>
      <rect class="cls-8" x="150.08" y="8.39" width="1.17" height="219.12"/>
      <rect class="cls-8" x="170.83" y="8.39" width="1.17" height="219.12"/>
      <rect class="cls-8" x="191.57" y="8.39" width="1.17" height="219.12"/>
      <rect class="cls-8" x="212.32" y="8.39" width="1.17" height="219.12"/>
      <rect class="cls-8" x="233.07" y="8.39" width="1.17" height="219.12"/>
    </g>
  </g>
  <text class="cls-2" transform="translate(545.02 275.78)"><tspan x="0" y="0"> </tspan></text>
  <text class="cls-10" transform="translate(40.03 144.55)"><tspan x="0" y="0">Grid</tspan></text>
  <g>
    <g>
      <circle class="cls-14" cx="192.17" cy="55.12" r="2.97"/>
      <circle class="cls-7" cx="192.62" cy="55.12" r=".93"/>
    </g>
    <rect class="cls-6" x="170.15" y="33.33" width="1.35" height="43.59" transform="translate(225.95 -115.7) rotate(90)"/>
  </g>
  <g>
    <g>
      <ellipse class="cls-12" cx="26.08" cy="56.37" rx="2.97" ry="2.18"/>
      <ellipse class="cls-4" cx="26.08" cy="56.37" rx=".93" ry=".69"/>
    </g>
    <rect class="cls-3" x="25.67" y="56.37" width=".83" height="29.42"/>
  </g>
  <g>
    <g>
      <circle class="cls-13" cx="26.08" cy="131.3" r="2.97"/>
      <circle class="cls-5" cx="26.08" cy="131.3" r=".93"/>
    </g>
    <rect class="cls-21" x="25.67" y="131.3" width=".83" height="48.38"/>
  </g>
  <g>
    <g>
      <circle class="cls-15" cx="67.42" cy="190.75" r="2.97"/>
      <circle class="cls-22" cx="67.42" cy="190.75" r=".93"/>
    </g>
    <rect class="cls-23" x="87.01" y="170.75" width=".83" height="40" transform="translate(-103.33 278.17) rotate(-90)"/>
  </g>
  <g>
    <g>
      <circle class="cls-18" cx="212.43" cy="189.82" r="2.97"/>
      <circle class="cls-28" cx="212.43" cy="189.82" r=".93"/>
    </g>
    <rect class="cls-29" x="212.02" y="149.82" width=".83" height="40" transform="translate(424.86 339.64) rotate(180)"/>
  </g>
  <g>
    <g>
      <circle class="cls-19" cx="213.36" cy="112.4" r="2.97"/>
      <circle class="cls-30" cx="213.36" cy="112.4" r=".93"/>
    </g>
    <rect class="cls-24" x="212.95" y="72.4" width=".83" height="40" transform="translate(426.73 184.81) rotate(180)"/>
  </g>
  <g>
    <g>
      <circle class="cls-17" cx="96.33" cy="54.19" r="2.97"/>
      <circle class="cls-25" cx="96.78" cy="54.19" r=".93"/>
    </g>
    <rect class="cls-26" x="74.31" y="32.39" width="1.35" height="43.59" transform="translate(129.17 -20.79) rotate(90)"/>
  </g>
  <g>
    <g>
      <circle class="cls-16" cx="148.08" cy="190.34" r="2.97"/>
      <circle class="cls-31" cx="148.08" cy="190.34" r=".93"/>
    </g>
    <rect class="cls-27" x="160.83" y="177.46" width=".54" height="26.04" transform="translate(-29.38 351.59) rotate(-90)"/>
  </g>
  <text class="cls-11" transform="translate(164.42 138.38)"><tspan x="0" y="0">+</tspan></text>
</svg>